<?xml version="1.0" encoding="UTF-8"?>
<svg width="140px" height="20px" viewBox="0 0 140 20" version="1.1" xmlns="http://www.w3.org/2000/svg" xmlns:xlink="http://www.w3.org/1999/xlink">
    <!-- Generator: Sketch 62 (91390) - https://sketch.com -->
    <title>Smart Reporting</title>
    <g id="UI" stroke="none" stroke-width="1" fill="none" fill-rule="evenodd">
        <g id="Metics_UI_MOBILE" transform="translate(-117.000000, -83.000000)">
            <g id="Nav" transform="translate(0.000000, 64.000000)">
                <g id="Group-2" transform="translate(118.000000, 14.000000)">
                    <path d="M29.9359998,20.112 C31.0026664,20.112 31.8719997,19.84 32.5439996,19.296 C33.2159996,18.7520001 33.5519995,18.0053335 33.5519995,17.0560002 C33.5519995,16.6080002 33.4746662,16.2106669 33.3199996,15.8640002 C33.1653329,15.5173336 32.9253329,15.218667 32.5999996,14.9680003 C32.2746663,14.7173336 31.9866663,14.522667 31.7359997,14.3840003 C31.485333,14.2453337 31.1359997,14.0800004 30.6879997,13.8880004 C30.0053331,13.5893337 29.4986665,13.3120004 29.1679998,13.0560004 C28.8373332,12.8000004 28.6719998,12.4586671 28.6719998,12.0320005 C28.6719998,11.6053338 28.8399998,11.2613339 29.1759998,11.0000005 C29.5119998,10.7386672 29.9733331,10.6080006 30.5599997,10.6080006 C31.4666663,10.6080006 32.277333,10.8320005 32.9919996,11.2800005 L32.9919996,11.2800005 L32.9919996,9.64800062 C32.309333,9.3066673 31.4826663,9.13600065 30.5119997,9.13600065 C29.4559998,9.13600065 28.5946665,9.4026673 27.9279999,9.9360006 C27.2613333,10.4693339 26.9279999,11.1946672 26.9279999,12.1120005 C26.9279999,12.3786671 26.9626666,12.6266671 27.0319999,12.8560004 C27.1013333,13.0853337 27.1759999,13.2853337 27.2559999,13.4560004 C27.3359999,13.626667 27.4666666,13.7973337 27.6479999,13.9680004 C27.8293332,14.138667 27.9813332,14.2720003 28.1039999,14.3680003 C28.2266665,14.4640003 28.4159999,14.5813337 28.6719998,14.7200003 C28.9279999,14.858667 29.1119998,14.954667 29.2239998,15.0080003 C29.3359998,15.0613336 29.5306665,15.1520003 29.8079998,15.2800003 C30.2773331,15.4933336 30.6293331,15.6613336 30.8639997,15.7840003 C31.0986664,15.9066669 31.317333,16.0880002 31.5199997,16.3280002 C31.7226663,16.5680002 31.8239997,16.8320002 31.8239997,17.1200002 C31.8239997,17.6000001 31.653333,17.9760001 31.3119997,18.2480001 C30.9706664,18.5200001 30.5066664,18.6560001 29.9199998,18.6560001 C28.8106665,18.6560001 27.8346666,18.3413334 26.9919999,17.7120001 L26.9919999,17.7120001 L26.9919999,19.424 C27.7706666,19.8826667 28.7519998,20.112 29.9359998,20.112 Z M37.0079993,20 L37.0079993,15.6000003 C37.0079993,14.7893336 37.194666,14.1760003 37.5679993,13.7600004 C37.9413326,13.3440004 38.3573326,13.1360004 38.8159992,13.1360004 C39.7653325,13.1360004 40.2399992,13.7173337 40.2399992,14.8800003 L40.2399992,14.8800003 L40.2399992,20 L41.8079991,20 L41.8079991,15.6000003 C41.8079991,14.7893336 41.991999,14.1760003 42.359999,13.7600004 C42.727999,13.3440004 43.1466656,13.1360004 43.615999,13.1360004 C44.5546656,13.1360004 45.0239989,13.7173337 45.0239989,14.8800003 L45.0239989,14.8800003 L45.0239989,20 L46.5919988,20 L46.5919988,14.5440003 C46.5919988,13.6800004 46.3759988,13.0026671 45.9439988,12.5120004 C45.5119988,12.0213338 44.8799989,11.7760005 44.0479989,11.7760005 C43.5146656,11.7760005 43.0346657,11.9120005 42.607999,12.1840005 C42.1813324,12.4560004 41.8559991,12.8426671 41.6319991,13.3440004 C41.2906658,12.2986671 40.5119991,11.7760005 39.2959992,11.7760005 C38.2293326,11.7760005 37.466666,12.2453338 37.0079993,13.1840004 L37.0079993,13.1840004 L37.0079993,11.8880005 L35.4399994,11.8880005 L35.4399994,20 L37.0079993,20 Z M50.8479985,20.064 C51.8933318,20.064 52.6239984,19.7226667 53.0399984,19.0400001 L53.0399984,19.0400001 L53.0399984,20 L54.5919983,20 L54.5919983,14.8480003 C54.5919983,12.7893338 53.530665,11.7600005 51.4079985,11.7600005 C50.3733319,11.7600005 49.5413319,11.9413338 48.9119986,12.3040005 L48.9119986,12.3040005 L48.9119986,13.8240004 C49.6159986,13.3440004 50.3999985,13.1040004 51.2639985,13.1040004 C51.8826651,13.1040004 52.3253318,13.2453337 52.5919984,13.5280004 C52.8586651,13.810667 52.9919984,14.2293337 52.9919984,14.7840003 L52.9919984,14.7840003 L52.9919984,15.2480003 L51.6479985,15.2480003 C50.5919985,15.2480003 49.7706652,15.4640003 49.1839986,15.8960002 C48.597332,16.3280002 48.3039987,16.9333335 48.3039987,17.7120001 C48.3039987,18.3946668 48.5359987,18.9573334 48.9999986,19.4 C49.4639986,19.8426667 50.0799986,20.064 50.8479985,20.064 Z M51.3439985,18.8320001 C50.8959985,18.8320001 50.5546652,18.7253334 50.3199986,18.5120001 C50.0853319,18.2986668 49.9679986,18.0053335 49.9679986,17.6320001 C49.9679986,17.2693335 50.1199986,16.9706668 50.4239985,16.7360002 C50.7279985,16.5013335 51.1786652,16.3840002 51.7759985,16.3840002 L51.7759985,16.3840002 L52.9919984,16.3840002 L52.9919984,17.2960002 C52.9919984,17.7546668 52.8453317,18.1253334 52.5519984,18.4080001 C52.2586651,18.6906667 51.8559985,18.8320001 51.3439985,18.8320001 Z M58.2719981,20 L58.2719981,15.6800003 C58.2719981,15.018667 58.4479981,14.4480003 58.799998,13.9680004 C59.151998,13.4880004 59.599998,13.2480004 60.143998,13.2480004 C60.4213313,13.2480004 60.6719979,13.2960004 60.8959979,13.3920004 L60.8959979,13.3920004 L60.8959979,11.8560005 C60.7146646,11.8240005 60.5493313,11.8080005 60.3999979,11.8080005 C59.375998,11.8080005 58.6666647,12.3093338 58.2719981,13.3120004 L58.2719981,13.3120004 L58.2719981,11.8880005 L56.7039982,11.8880005 L56.7039982,20 L58.2719981,20 Z M65.0879977,20.08 C65.5999976,20.08 66.0319976,19.984 66.3839976,19.792 L66.3839976,19.792 L66.3839976,18.3840001 C66.0853309,18.6186667 65.717331,18.7360001 65.2799977,18.7360001 C64.533331,18.7360001 64.1599977,18.3466668 64.1599977,17.5680001 L64.1599977,17.5680001 L64.1599977,13.1040004 L66.2879976,13.1040004 L66.2879976,11.8880005 L64.1599977,11.8880005 L64.1599977,9.9040006 L62.5759978,9.9040006 L62.5759978,11.8880005 L61.3119979,11.8880005 L61.3119979,13.1040004 L62.5759978,13.1040004 L62.5759978,17.5360001 C62.5759978,19.232 63.4133311,20.08 65.0879977,20.08 Z M73.7599972,20 L73.7599972,15.9040002 L75.1839971,15.9040002 L77.7119969,20 L79.6799968,20 L76.863997,15.6480003 C77.5253303,15.4133336 78.0426636,15.0320003 78.4159969,14.5040003 C78.7893302,13.9760004 78.9813302,13.3333337 78.9919968,12.5760004 C78.9919968,11.5413338 78.6559969,10.7226672 77.9839969,10.1200006 C77.3119969,9.51733396 76.3573303,9.21600064 75.1199971,9.21600064 L75.1199971,9.21600064 L72.1119973,9.21600064 L72.1119973,20 L73.7599972,20 Z M75.2479971,14.5280003 L73.7599972,14.5280003 L73.7599972,10.5920006 L75.1679971,10.5920006 C76.607997,10.5920006 77.3279969,11.2480005 77.3279969,12.5600004 C77.3279969,13.1573337 77.151997,13.634667 76.799997,13.9920004 C76.447997,14.3493337 75.9306637,14.5280003 75.2479971,14.5280003 L75.2479971,14.5280003 Z M84.8159965,20.08 C85.7973298,20.08 86.5866631,19.9093333 87.1839964,19.568 L87.1839964,19.568 L87.1839964,18.1600001 C86.6079964,18.5653334 85.8879964,18.7680001 85.0239965,18.7680001 C84.2773299,18.7680001 83.6586632,18.5813334 83.1679966,18.2080001 C82.67733,17.8346668 82.3786633,17.2960002 82.2719966,16.5920002 L82.2719966,16.5920002 L87.5999963,16.5920002 C87.6639963,16.2293336 87.6959963,15.8826669 87.6959963,15.5520003 C87.6959963,14.3360003 87.3919963,13.4053337 86.7839964,12.7600004 C86.1759964,12.1146671 85.3546631,11.7920005 84.3199965,11.7920005 C83.2639966,11.7920005 82.3946633,12.1626671 81.7119967,12.9040004 C81.0293301,13.6453337 80.6879967,14.666667 80.6879967,15.9680002 C80.6879967,17.1946668 81.0613301,18.1866668 81.8079967,18.9440001 C82.5546633,19.7013334 83.5573299,20.08 84.8159965,20.08 Z M86.1759964,15.3600003 L82.2559966,15.3600003 C82.3519966,14.6240003 82.5919966,14.0613337 82.9759966,13.6720004 C83.3599966,13.2826671 83.8186632,13.0880004 84.3519965,13.0880004 C84.9279965,13.0880004 85.3706631,13.2666671 85.6799964,13.6240004 C85.9893298,13.9813337 86.1546631,14.4640003 86.1759964,15.0720003 L86.1759964,15.0720003 L86.1759964,15.3600003 Z M91.1039961,23.1039998 L91.1039961,18.7680001 C91.6693294,19.664 92.4906627,20.112 93.567996,20.112 C94.6239959,20.112 95.4693292,19.7146667 96.1039958,18.9200001 C96.7386625,18.1253334 97.0559958,17.1146668 97.0559958,15.8880002 C97.0559958,14.6933336 96.7466624,13.7093337 96.1279958,12.9360004 C95.5093292,12.1626671 94.6666626,11.7760005 93.599996,11.7760005 C92.4906627,11.7760005 91.6586628,12.2293338 91.1039961,13.1360004 L91.1039961,13.1360004 L91.1039961,11.8880005 L89.5359962,11.8880005 L89.5359962,23.1039998 L91.1039961,23.1039998 Z M93.279996,18.7360001 C92.7146627,18.7360001 92.2106627,18.5013334 91.7679961,18.0320001 C91.3253294,17.5626668 91.1039961,16.8586669 91.1039961,15.9200002 C91.1039961,14.9600003 91.3253294,14.258667 91.7679961,13.8160004 C92.2106627,13.3733337 92.735996,13.1520004 93.343996,13.1520004 C93.9519959,13.1520004 94.4533293,13.4000004 94.8479959,13.8960004 C95.2426625,14.3920003 95.4399959,15.0613336 95.4399959,15.9040002 C95.4399959,16.8000002 95.2373292,17.4960001 94.8319959,17.9920001 C94.4266626,18.4880001 93.9093293,18.7360001 93.279996,18.7360001 Z M102.207995,20.144 C103.413329,20.144 104.359995,19.7493333 105.047995,18.9600001 C105.735995,18.1706668 106.079995,17.1680002 106.079995,15.9520002 C106.079995,14.7360003 105.743995,13.738667 105.071995,12.9600004 C104.399995,12.1706671 103.445329,11.7760005 102.207995,11.7760005 C101.055996,11.7760005 100.127996,12.1786671 99.4239956,12.9840004 C98.7199957,13.7893337 98.3679957,14.8000003 98.3679957,16.0160002 C98.3679957,17.2106668 98.709329,18.1973334 99.3919956,18.9760001 C100.074662,19.7546667 101.013329,20.144 102.207995,20.144 Z M102.207995,18.8160001 C101.525329,18.8160001 100.986662,18.5413334 100.591996,17.9920001 C100.197329,17.4426668 99.9999956,16.7680002 99.9999956,15.9680002 C99.9999956,15.1573336 100.191996,14.4773337 100.575996,13.9280004 C100.959996,13.3786671 101.498662,13.1040004 102.191995,13.1040004 C102.959995,13.1040004 103.525329,13.3733337 103.887995,13.9120004 C104.250662,14.450667 104.431995,15.1413336 104.431995,15.9840002 C104.431995,16.8053335 104.242662,17.4826668 103.863995,18.0160001 C103.485329,18.5493334 102.933329,18.8160001 102.207995,18.8160001 Z M109.407995,20 L109.407995,15.6800003 C109.407995,15.018667 109.583995,14.4480003 109.935995,13.9680004 C110.287995,13.4880004 110.735995,13.2480004 111.279995,13.2480004 C111.557328,13.2480004 111.807995,13.2960004 112.031995,13.3920004 L112.031995,13.3920004 L112.031995,11.8560005 C111.850662,11.8240005 111.685328,11.8080005 111.535995,11.8080005 C110.511995,11.8080005 109.802662,12.3093338 109.407995,13.3120004 L109.407995,13.3120004 L109.407995,11.8880005 L107.839995,11.8880005 L107.839995,20 L109.407995,20 Z M116.223995,20.08 C116.735995,20.08 117.167995,19.984 117.519995,19.792 L117.519995,19.792 L117.519995,18.3840001 C117.221328,18.6186667 116.853328,18.7360001 116.415995,18.7360001 C115.669328,18.7360001 115.295995,18.3466668 115.295995,17.5680001 L115.295995,17.5680001 L115.295995,13.1040004 L117.423995,13.1040004 L117.423995,11.8880005 L115.295995,11.8880005 L115.295995,9.9040006 L113.711995,9.9040006 L113.711995,11.8880005 L112.447995,11.8880005 L112.447995,13.1040004 L113.711995,13.1040004 L113.711995,17.5360001 C113.711995,19.232 114.549328,20.08 116.223995,20.08 Z M120.095994,10.3840006 C120.373328,10.3840006 120.607994,10.2880006 120.799994,10.0960006 C120.991994,9.9040006 121.087994,9.67466728 121.087994,9.40800063 C121.087994,9.13066731 120.991994,8.89600066 120.799994,8.70400067 C120.607994,8.51200068 120.373328,8.41600069 120.095994,8.41600069 C119.818661,8.41600069 119.586661,8.51200068 119.399994,8.70400067 C119.213328,8.89600066 119.119994,9.13066731 119.119994,9.40800063 C119.119994,9.68533395 119.213328,9.91733393 119.399994,10.1040006 C119.586661,10.2906672 119.818661,10.3840006 120.095994,10.3840006 Z M120.895994,20 L120.895994,11.8880005 L119.311994,11.8880005 L119.311994,20 L120.895994,20 Z M124.735994,20 L124.735994,15.6000003 C124.735994,14.8213336 124.933327,14.2160003 125.327994,13.7840004 C125.722661,13.3520004 126.197327,13.1360004 126.751994,13.1360004 C127.221327,13.1360004 127.597327,13.2853337 127.879994,13.5840004 C128.162661,13.882667 128.303994,14.314667 128.303994,14.8800003 L128.303994,14.8800003 L128.303994,20 L129.871994,20 L129.871994,14.5120003 C129.871994,13.6693337 129.637327,13.0026671 129.167994,12.5120004 C128.698661,12.0213338 128.063994,11.7760005 127.263994,11.7760005 C126.058661,11.7760005 125.215994,12.2773338 124.735994,13.2800004 L124.735994,13.2800004 L124.735994,11.8880005 L123.167994,11.8880005 L123.167994,20 L124.735994,20 Z M135.023994,23.0879998 C136.133327,23.0879998 137.04266,22.7706665 137.751993,22.1359999 C138.461327,21.5013332 138.815993,20.56 138.815993,19.312 L138.815993,19.312 L138.815993,11.8880005 L137.247993,11.8880005 L137.247993,13.1520004 C136.757327,12.2346671 135.973327,11.7760005 134.895994,11.7760005 C133.893327,11.7760005 133.087994,12.1626671 132.479994,12.9360004 C131.871994,13.7093337 131.567994,14.6933336 131.567994,15.8880002 C131.567994,17.1253335 131.893327,18.0826668 132.543994,18.7600001 C133.19466,19.4373334 133.97866,19.7760005 134.895994,19.7760005 C135.941327,19.7760005 136.725327,19.3386667 137.247993,18.4640001 L137.247993,18.4640001 L137.247993,19.296 C137.247993,20.8639999 136.453327,21.6479999 134.863994,21.6479999 C133.893327,21.6479999 133.06666,21.4239999 132.383994,20.9759999 L132.383994,20.9759999 L132.383994,22.5599998 C133.09866,22.9119998 133.97866,23.0879998 135.023994,23.0879998 Z M135.183993,18.4320001 C134.65066,18.4320001 134.189327,18.2133334 133.799994,17.7760001 C133.41066,17.3386668 133.215994,16.6986669 133.215994,15.8560002 C133.215994,15.0453336 133.397327,14.3920003 133.759994,13.8960004 C134.12266,13.4000004 134.61866,13.1520004 135.247993,13.1520004 C135.80266,13.1520004 136.27466,13.3813337 136.663993,13.8400004 C137.053327,14.298667 137.247993,15.0080003 137.247993,15.9680002 C137.247993,16.7466669 137.04266,17.3520002 136.631993,17.7840001 C136.221327,18.2160001 135.73866,18.4320001 135.183993,18.4320001 Z" id="SmartReporting" fill="#1B215C" fill-rule="nonzero"></path>
                    <g id="cpu" transform="translate(0.000000, 6.000000)" stroke="#4552E8" stroke-linecap="round" stroke-linejoin="round" stroke-width="1.5999999">
                        <rect id="Rectangle" x="2.39999986" y="2.39999986" width="12.7999992" height="12.7999992" rx="1.5999999"></rect>
                        <path d="M11.1999993,6.39999962 L11.1999993,6.39999962 L11.1999993,6.39999962 C11.1999993,9.05096626 9.05096626,11.1999993 6.39999962,11.1999993 L6.39999962,11.1999993 L6.39999962,11.1999993 C6.39999962,8.54903269 8.54903269,6.39999962 11.1999993,6.39999962 Z" id="Rectangle"></path>
                        <line x1="6.39999962" y1="0" x2="6.39999962" y2="2.39999986" id="Path"></line>
                        <line x1="11.1999993" y1="0" x2="11.1999993" y2="2.39999986" id="Path"></line>
                        <line x1="6.39999962" y1="15.1999991" x2="6.39999962" y2="17.599999" id="Path"></line>
                        <line x1="11.1999993" y1="15.1999991" x2="11.1999993" y2="17.599999" id="Path"></line>
                        <line x1="15.1999991" y1="6.39999962" x2="17.599999" y2="6.39999962" id="Path"></line>
                        <line x1="15.1999991" y1="10.3999994" x2="17.599999" y2="10.3999994" id="Path"></line>
                        <line x1="0" y1="6.39999962" x2="2.39999986" y2="6.39999962" id="Path"></line>
                        <line x1="0" y1="10.3999994" x2="2.39999986" y2="10.3999994" id="Path"></line>
                    </g>
                </g>
            </g>
        </g>
    </g>
</svg>